<svg width="269" height="121" viewBox="0 0 269 121" fill="none" xmlns="http://www.w3.org/2000/svg">
<path d="M19.7202 114.961H9.7966L7.92331 120.543H0.670471L11.3788 91.3655H18.1759L28.8842 120.543H21.5935L19.7202 114.961ZM11.632 109.505H17.8848L15.7583 103.049L14.885 99.3023H14.6318L13.8344 102.973L11.632 109.505Z" fill="white"/>
<path d="M38.8077 118.758L38.2255 120.556H32.2638V90.125H39.2635V101.505L39.5166 101.593C40.719 100.264 42.7316 99.3024 45.2631 99.3024C50.8957 99.3024 55.3132 104.1 55.3132 110.138C55.3132 116.176 50.7312 120.973 44.8581 120.973C42.0987 120.961 40.352 120.176 38.8077 118.758ZM39.2635 107.34V114.176C40.428 114.885 42.0607 115.302 43.972 115.302C46.3517 115.302 48.3009 113.214 48.3009 110.138C48.3009 107.062 46.339 104.973 43.972 104.973C42.0607 104.961 40.2634 105.581 39.2635 107.34Z" fill="white"/>
<path d="M74.9831 100.998V90.125H81.9827V120.556H74.9831V119.011L74.7299 118.923C73.5274 120.125 71.5149 120.961 69.1479 120.961C63.5153 120.961 59.0978 116.163 59.0978 110.125C59.0978 104.087 63.6799 99.2897 69.5657 99.2897C71.9453 99.2897 73.5654 99.9098 74.9831 100.998ZM74.9831 113.214V105.998C73.8186 105.328 72.2743 104.961 70.439 104.961C68.0593 104.961 66.1101 107.049 66.1101 110.125C66.1101 113.201 68.072 115.29 70.439 115.29C72.2363 115.29 73.9451 114.758 74.9831 113.214Z" fill="white"/>
<path d="M106.918 110.923C106.918 117.011 102.336 120.973 96.2098 120.973C90.0835 120.973 85.4509 117.011 85.4509 110.923V99.7073H92.4505V110.923C92.4505 114.011 93.9947 115.303 96.1971 115.303C98.4122 115.303 99.9058 114.011 99.9058 110.923V99.7073H106.905V110.923H106.918Z" fill="white"/>
<path d="M121.335 120.923C114.627 120.923 111.88 118.176 111.88 112.796V90.125H118.879V111.885C118.879 113.796 119.791 114.682 121.753 114.796L121.335 120.923Z" fill="white"/>
<path d="M135.132 120.923C128.423 120.923 125.677 118.176 125.677 112.796V90.125H132.676V111.885C132.676 113.796 133.588 114.682 135.549 114.796L135.132 120.923Z" fill="white"/>
<path d="M154.093 101.036L154.308 100.91V99.7071H161.308V120.543H154.308V118.669L154.055 118.581C152.852 119.961 150.764 120.961 148.182 120.961C142.549 120.961 138.132 116.163 138.132 110.125C138.132 104.087 142.714 99.2896 148.587 99.2896C151.144 99.2896 152.852 99.9983 154.093 101.036ZM154.308 112.707V106.125C153.105 105.378 151.435 104.96 149.473 104.96C147.093 104.96 145.144 107.049 145.144 110.125C145.144 113.201 147.106 115.29 149.473 115.29C151.473 115.29 153.308 114.631 154.308 112.707Z" fill="white"/>
<path d="M167.143 90.125H174.142V101.96L174.395 102.087C175.775 100.467 178.104 99.2897 181.104 99.2897C185.23 99.2897 188.648 102.378 188.648 108.505V120.556H181.648V108.973C181.648 106.176 179.977 104.973 177.978 104.973C176.395 104.973 174.978 105.809 174.142 106.594V120.556H167.143V90.125Z" fill="white"/>
<path d="M219.71 114.961H209.786L207.913 120.543H200.66L211.368 91.3655H218.165L228.874 120.543H221.583L219.71 114.961ZM211.621 109.505H217.874L215.748 103.049L214.874 99.3023H214.621L213.824 102.973L211.621 109.505Z" fill="white"/>
<path d="M236.291 91.0745C239.164 91.0745 240.164 92.6186 240.164 94.0363C240.164 95.3275 239.164 96.9478 236.291 96.9478C233.671 96.9478 232.456 95.3275 232.456 94.0363C232.456 92.6186 233.671 91.0745 236.291 91.0745ZM232.835 99.7073H239.835V120.543H232.835V99.7073Z" fill="white"/>
<path d="M261.429 100.998V90.125H268.429V120.556H261.429V119.011L261.176 118.923C259.973 120.125 257.961 120.961 255.594 120.961C249.974 120.961 245.544 116.163 245.544 110.125C245.544 104.087 250.126 99.2897 255.999 99.2897C258.378 99.2897 260.011 99.9098 261.429 100.998ZM261.429 113.214V105.998C260.264 105.328 258.72 104.961 256.885 104.961C254.505 104.961 252.556 107.049 252.556 110.125C252.556 113.201 254.518 115.29 256.885 115.29C258.67 115.29 260.378 114.758 261.429 113.214Z" fill="white"/>
<path d="M166.206 43.6434L134.524 24.8835L102.893 43.6434V19.2633L134.55 0.503418L166.206 19.2633V43.6434Z" fill="white"/>
<path d="M166.206 74.264L134.524 55.5042L102.893 74.264V49.8839L134.55 31.1367L166.206 49.8839V74.264Z" fill="white"/>
</svg>
