<svg width="261" height="50" viewBox="0 0 261 50" fill="none" xmlns="http://www.w3.org/2000/svg">
<path d="M68.559 32.0062H60.9171L59.4697 36.3058H53.8824L62.1315 13.8265H67.363L75.6182 36.3058H70.0002L68.559 32.0062ZM62.3277 27.7986H67.1422L65.5047 22.8243L64.83 19.9355H64.6399L64.0327 22.763L62.3277 27.7986Z" fill="white"/>
<path d="M83.2598 34.9258L82.8121 36.3058H78.2184V12.8635H83.6094V21.6283L83.7995 21.6896C84.7317 20.6592 86.2712 19.9232 88.2276 19.9232C92.5637 19.9232 95.9676 23.6156 95.9676 28.2709C95.9676 32.9262 92.4349 36.6186 87.9087 36.6186C85.7989 36.6309 84.4496 36.0175 83.2598 34.9258ZM83.6155 26.1303V31.399C84.5171 31.9449 85.7682 32.2638 87.2463 32.2638C89.074 32.2638 90.5827 30.6568 90.5827 28.2832C90.5827 25.9095 89.074 24.3025 87.2463 24.3025C85.7682 24.2964 84.3883 24.7809 83.6155 26.1303Z" fill="white"/>
<path d="M111.135 21.248V12.8696H116.526V36.3058H111.135V35.1159L110.945 35.0484C110.013 35.9807 108.473 36.6248 106.646 36.6248C102.31 36.6248 98.9056 32.9324 98.9056 28.277C98.9056 23.6217 102.438 19.9293 106.965 19.9293C108.792 19.9293 110.043 20.4139 111.135 21.248ZM111.135 30.6568V25.0999C110.233 24.5847 109.05 24.2964 107.633 24.2964C105.805 24.2964 104.297 25.9034 104.297 28.277C104.297 30.6507 105.805 32.2577 107.633 32.2577C109.013 32.2638 110.332 31.8467 111.135 30.6568Z" fill="white"/>
<path d="M135.728 28.8904C135.728 33.5764 132.196 36.6309 127.479 36.6309C122.763 36.6309 119.194 33.5825 119.194 28.8904V20.2544H124.585V28.8904C124.585 31.2641 125.774 32.2638 127.473 32.2638C129.172 32.2638 130.331 31.2702 130.331 28.8904V20.2544H135.722V28.8904H135.728Z" fill="white"/>
<path d="M146.836 36.5941C141.665 36.5941 139.55 34.478 139.55 30.3318V12.8635H144.941V29.6264C144.941 31.1046 145.646 31.7793 147.155 31.8713L146.836 36.5941Z" fill="white"/>
<path d="M157.464 36.5941C152.294 36.5941 150.178 34.478 150.178 30.3318V12.8635H155.569V29.6264C155.569 31.1046 156.275 31.7793 157.783 31.8713L157.464 36.5941Z" fill="white"/>
<path d="M172.073 21.2787L172.233 21.1806V20.2483H177.624V36.3058H172.233V34.8583L172.043 34.797C171.11 35.8581 169.504 36.6248 167.516 36.6248C163.18 36.6248 159.776 32.9324 159.776 28.2771C159.776 23.6217 163.309 19.9293 167.835 19.9293C169.798 19.9293 171.117 20.4752 172.073 21.2787ZM172.239 30.2704V25.198C171.307 24.6215 170.025 24.2964 168.516 24.2964C166.688 24.2964 165.174 25.9034 165.174 28.2771C165.174 30.6507 166.682 32.2577 168.516 32.2577C170.056 32.2638 171.466 31.7486 172.239 30.2704Z" fill="white"/>
<path d="M182.125 12.8696H187.517V21.9902L187.713 22.0883C188.774 20.8371 190.571 19.9355 192.883 19.9355C196.06 19.9355 198.697 22.3091 198.697 27.0319V36.3058H193.3V27.3815C193.3 25.2287 192.018 24.2964 190.473 24.2964C189.252 24.2964 188.16 24.9404 187.517 25.5476V36.3058H182.125V12.8696Z" fill="white"/>
<path d="M222.616 32.0062H214.974L213.527 36.3058H207.94L216.189 13.8265H221.42L229.682 36.3058H224.064L222.616 32.0062ZM216.385 27.7986H221.199L219.562 22.8243L218.887 19.9355H218.697L218.09 22.763L216.385 27.7986Z" fill="white"/>
<path d="M235.398 13.6057C237.612 13.6057 238.384 14.7956 238.384 15.8873C238.384 16.881 237.612 18.1322 235.398 18.1322C233.374 18.1322 232.441 16.881 232.441 15.8873C232.441 14.7956 233.374 13.6057 235.398 13.6057ZM232.73 20.2544H238.121V36.3058H232.73V20.2544Z" fill="white"/>
<path d="M254.76 21.248V12.8696H260.151V36.3058H254.76V35.1159L254.57 35.0484C253.637 35.9807 252.098 36.6248 250.264 36.6248C245.928 36.6248 242.524 32.9324 242.524 28.277C242.524 23.6217 246.057 19.9293 250.583 19.9293C252.411 19.9293 253.668 20.4139 254.76 21.248ZM254.76 30.6568V25.0999C253.858 24.5847 252.674 24.2964 251.258 24.2964C249.43 24.2964 247.915 25.9034 247.915 28.277C247.915 30.6507 249.424 32.2577 251.258 32.2577C252.638 32.2638 253.956 31.8467 254.76 30.6568Z" fill="white"/>
<path d="M42.7297 29.3375L21.3434 16.68L0 29.3375V12.887L21.3649 0.234825L42.7297 12.887V29.3375Z" fill="#10AE88"/>
<path d="M42.7297 50L21.3434 37.3425L0 50V33.5549L21.3649 20.8973L42.7297 33.5549V50Z" fill="#10AE88"/>
</svg>
