<svg xmlns="http://www.w3.org/2000/svg" viewBox="0 0 175.68 79.03"><defs><style>.cls-1{fill:#010101;}.cls-2{fill:#0ea780;}</style></defs><title>Asset 3</title><g id="Layer_2" data-name="Layer 2"><g id="Layer_1-2" data-name="Layer 1"><path class="cls-1" d="M12.5,75.09H6L4.76,78.76H0L7,59.61h4.46l7,19.15H13.73ZM7.19,71.51h4.1L9.9,67.27l-.57-2.46H9.16l-.52,2.41Z"/><path class="cls-1" d="M25,77.58l-.38,1.18H20.73v-20h4.59v7.47l.17,0a5,5,0,0,1,3.77-1.5,6.81,6.81,0,0,1,6.59,7.11A6.92,6.92,0,0,1,29,79,5.39,5.39,0,0,1,25,77.58Zm.3-7.49v4.48a6,6,0,0,0,3.09.74c1.56,0,2.85-1.37,2.85-3.39S30,68.53,28.41,68.53A3.33,3.33,0,0,0,25.32,70.09Z"/><path class="cls-1" d="M48.76,65.93V58.79h4.6v20h-4.6v-1l-.16-.06A5.23,5.23,0,0,1,44.93,79a6.81,6.81,0,0,1-6.59-7.11,6.92,6.92,0,0,1,6.87-7.11A5.48,5.48,0,0,1,48.76,65.93Zm0,8V69.21a6.08,6.08,0,0,0-3-.68c-1.56,0-2.84,1.37-2.84,3.39s1.28,3.39,2.84,3.39A3.37,3.37,0,0,0,48.76,73.94Z"/><path class="cls-1" d="M69.71,72.44c0,4-3,6.59-7,6.59s-7-2.6-7-6.59V65.08h4.59v7.36c0,2,1,2.87,2.46,2.87s2.44-.85,2.44-2.87V65.08h4.59Z"/><path class="cls-1" d="M79.17,79C74.77,79,73,77.2,73,73.67V58.79h4.6V73.07c0,1.26.6,1.83,1.89,1.91Z"/><path class="cls-1" d="M88.22,79c-4.4,0-6.2-1.8-6.2-5.33V58.79h4.59V73.07c0,1.26.6,1.83,1.89,1.91Z"/><path class="cls-1" d="M100.67,66l.14-.08v-.8h4.59V78.76h-4.59V77.53l-.17-.06A5.09,5.09,0,0,1,96.79,79a6.81,6.81,0,0,1-6.6-7.11,6.92,6.92,0,0,1,6.87-7.11A5.33,5.33,0,0,1,100.67,66Zm.14,7.66V69.29a6.11,6.11,0,0,0-3.18-.76c-1.56,0-2.84,1.37-2.84,3.39s1.28,3.39,2.84,3.39A3.32,3.32,0,0,0,100.81,73.62Z"/><path class="cls-1" d="M109.23,58.79h4.59v7.77l.17.08a5.67,5.67,0,0,1,4.4-1.83c2.71,0,5,2,5,6v7.91h-4.59V71.15a2.32,2.32,0,0,0-2.41-2.62,3.84,3.84,0,0,0-2.52,1.07v9.16h-4.59Z"/><path class="cls-1" d="M143.71,75.09h-6.5L136,78.76h-4.75l7-19.15h4.46l7,19.15h-4.79Zm-5.3-3.58h4.1l-1.39-4.24-.58-2.46h-.16l-.52,2.41Z"/><path class="cls-1" d="M154.6,59.42c1.89,0,2.54,1,2.54,1.94s-.65,1.92-2.54,1.92c-1.72,0-2.52-1.07-2.52-1.92S152.88,59.42,154.6,59.42Zm-2.27,5.66h4.59V78.76h-4.59Z"/><path class="cls-1" d="M171.09,65.93V58.79h4.59v20h-4.59v-1l-.16-.06A5.23,5.23,0,0,1,167.26,79a6.81,6.81,0,0,1-6.59-7.11,6.92,6.92,0,0,1,6.86-7.11A5.49,5.49,0,0,1,171.09,65.93Zm0,8V69.21a6.11,6.11,0,0,0-3-.68c-1.56,0-2.85,1.37-2.85,3.39s1.29,3.39,2.85,3.39A3.38,3.38,0,0,0,171.09,73.94Z"/><polygon class="cls-2" points="108.94 28.3 88.15 15.99 67.4 28.3 67.4 12.31 88.17 0 108.94 12.31 108.94 28.3"/><polygon class="cls-2" points="108.94 48.39 88.15 36.08 67.4 48.39 67.4 32.4 88.17 20.09 108.94 32.4 108.94 48.39"/></g></g></svg>