<svg xmlns="http://www.w3.org/2000/svg" viewBox="0 0 90.47 90.47"><defs><style>.cls-1{fill:#009f79;}</style></defs><title>Asset 2</title><g id="Layer_2" data-name="Layer 2"><g id="Layer_1-2" data-name="Layer 1"><polygon class="cls-1" points="42.82 50.24 45.36 50.24 44.09 46.47 42.82 50.24"/><path class="cls-1" d="M25.07,34.49a2.89,2.89,0,0,0,2.27.85,2.87,2.87,0,0,0,2.26-.85,4.51,4.51,0,0,0,1-2.25,20.1,20.1,0,0,0,.25-3.51,13.43,13.43,0,0,0-.69-4.86,2.75,2.75,0,0,0-2.84-1.7,2.76,2.76,0,0,0-2.85,1.7,13.43,13.43,0,0,0-.69,4.86,21.13,21.13,0,0,0,.25,3.51A4.59,4.59,0,0,0,25.07,34.49Z"/><path class="cls-1" d="M23.82,51a3.57,3.57,0,0,0,0-4.35,2.82,2.82,0,0,0-4,0,3.6,3.6,0,0,0,0,4.37,2.56,2.56,0,0,0,2,.81A2.54,2.54,0,0,0,23.82,51Z"/><path class="cls-1" d="M45.49,34.49a3.46,3.46,0,0,0,4.54,0,4.5,4.5,0,0,0,1-2.25,20.1,20.1,0,0,0,.25-3.51,13.43,13.43,0,0,0-.69-4.86,2.74,2.74,0,0,0-2.84-1.7,2.76,2.76,0,0,0-2.85,1.7,13.43,13.43,0,0,0-.69,4.86,21.13,21.13,0,0,0,.25,3.51A4.59,4.59,0,0,0,45.49,34.49Z"/><path class="cls-1" d="M27.59,61a3.83,3.83,0,0,0-3,1.2,5.32,5.32,0,0,0,0,6.48,3.84,3.84,0,0,0,3,1.21,3.76,3.76,0,0,0,2.93-1.22,4.63,4.63,0,0,0,1.11-3.23,4.57,4.57,0,0,0-1.11-3.23A3.75,3.75,0,0,0,27.59,61Z"/><path class="cls-1" d="M68.36,45.82a2.56,2.56,0,0,0-2,.81,3.6,3.6,0,0,0,0,4.37,2.56,2.56,0,0,0,2,.81,2.51,2.51,0,0,0,2-.82,3.53,3.53,0,0,0,0-4.35A2.54,2.54,0,0,0,68.36,45.82Z"/><path class="cls-1" d="M64.15,25.51A1.35,1.35,0,0,0,65.27,25a2.6,2.6,0,0,0,.41-1.59q0-2.16-1.53-2.16c-1,0-1.51.72-1.51,2.16S63.14,25.51,64.15,25.51Z"/><path class="cls-1" d="M77.89,33.88a2.72,2.72,0,0,0-.39,1.62c0,1.42.5,2.12,1.5,2.12a1.34,1.34,0,0,0,1.13-.53,2.59,2.59,0,0,0,.4-1.59,2.69,2.69,0,0,0-.4-1.61A1.35,1.35,0,0,0,79,33.35,1.28,1.28,0,0,0,77.89,33.88Z"/><path class="cls-1" d="M0,0V90.47H90.47V0ZM84.22,35.5a5.12,5.12,0,0,1-1.44,3.9,5.79,5.79,0,0,1-7.5,0,5.12,5.12,0,0,1-1.44-3.9,5.12,5.12,0,0,1,1.44-3.9,5.79,5.79,0,0,1,7.5,0A5.12,5.12,0,0,1,84.22,35.5Zm-4-17-12,22H63l12-22ZM73.63,48.82a5.3,5.3,0,0,1-.7,2.72A5,5,0,0,1,71,53.42a5.56,5.56,0,0,1-5.33,0,5,5,0,0,1-1.92-1.88,5.5,5.5,0,0,1,0-5.44,5,5,0,0,1,1.92-1.87,5.58,5.58,0,0,1,5.34,0,5,5,0,0,1,1.91,1.87A5.39,5.39,0,0,1,73.63,48.82ZM60.41,19.48a5.84,5.84,0,0,1,7.52,0,5.16,5.16,0,0,1,1.44,3.91,4.85,4.85,0,0,1-5.19,5.27,5.24,5.24,0,0,1-3.77-1.37A5.12,5.12,0,0,1,59,23.39,5.13,5.13,0,0,1,60.41,19.48ZM61.64,43.7V54H59.13V43.7ZM41.05,20.26c1.39-2.06,3.62-3.09,6.71-3.09s5.32,1,6.71,3.09,2.08,4.89,2.08,8.47-.7,6.46-2.08,8.52-3.63,3.09-6.71,3.09-5.32-1-6.71-3.09S39,32.35,39,28.73,39.66,22.32,41.05,20.26Zm-20.42,0c1.39-2.06,3.62-3.09,6.71-3.09s5.32,1,6.71,3.09,2.08,4.89,2.08,8.47-.7,6.46-2.08,8.52-3.63,3.09-6.71,3.09-5.32-1-6.71-3.09-2.08-4.9-2.08-8.52S19.24,22.32,20.63,20.26ZM37.75,43.7V54H35.24L31,47.64V54H28.52V43.7H31l4.2,6.38V43.7ZM6.2,17.64h8.66V40.43H9.29V22.61H6.2ZM6.26,43.7h3.87a6,6,0,0,1,2.85.64,4.67,4.67,0,0,1,1.89,1.82,5.72,5.72,0,0,1,0,5.37A4.63,4.63,0,0,1,13,53.35a6,6,0,0,1-2.84.65H6.26ZM17.77,65.2A4.45,4.45,0,0,1,15.89,67a6.6,6.6,0,0,1-3.14.67H10.44v5.49H6.71V57.85h6a6.94,6.94,0,0,1,3.1.63,4.41,4.41,0,0,1,1.9,1.74,5.08,5.08,0,0,1,.63,2.55A4.87,4.87,0,0,1,17.77,65.2Zm-.52-13.66a5.5,5.5,0,0,1,0-5.44,5,5,0,0,1,1.92-1.87,5.58,5.58,0,0,1,5.34,0,5,5,0,0,1,1.91,1.87,5.39,5.39,0,0,1,.69,2.72,5.3,5.3,0,0,1-.7,2.72,5,5,0,0,1-1.91,1.88,5.34,5.34,0,0,1-2.66.68,5.41,5.41,0,0,1-2.67-.68A5,5,0,0,1,17.25,51.54ZM34.37,69.49a7.32,7.32,0,0,1-2.83,2.8,8.25,8.25,0,0,1-7.91,0,7.4,7.4,0,0,1-2.86-2.8,8.21,8.21,0,0,1,0-8.07,7.51,7.51,0,0,1,2.86-2.79,8.34,8.34,0,0,1,7.92,0,7.46,7.46,0,0,1,2.84,2.79,8.35,8.35,0,0,1,0,8.07Zm11.77,3.65H37.52V57.85h3.73V70.27h4.89Zm-.13-21H42.16L41.54,54H38.91l3.73-10.3h2.91L49.29,54H46.63Zm5.67,21H48V57.85h3.73ZM49.87,45.71v-2h8v2H55.12V54H52.61V45.71Zm8.77,23a3.54,3.54,0,0,0,2.79,1.19,3.61,3.61,0,0,0,1.91-.5,3.31,3.31,0,0,0,1.3-1.46h4.1a6.82,6.82,0,0,1-2.59,3.91,7.64,7.64,0,0,1-4.67,1.43,8,8,0,0,1-4-1,7,7,0,0,1-2.73-2.76,8.08,8.08,0,0,1-1-4,8.17,8.17,0,0,1,1-4,7,7,0,0,1,2.73-2.76,8,8,0,0,1,4-1,7.65,7.65,0,0,1,4.67,1.44A6.91,6.91,0,0,1,68.74,63h-4.1a3.43,3.43,0,0,0-1.3-1.46,3.7,3.7,0,0,0-1.91-.5,3.55,3.55,0,0,0-2.79,1.2,5.34,5.34,0,0,0,0,6.41Zm20.25-.59v5H75.16v-5l-5.3-10.24h4.23l3,6.4L80,57.85h4.19ZM84.27,54H81.76l-4.2-6.36V54H75V43.7h2.52l4.2,6.38V43.7h2.51Z"/><path class="cls-1" d="M12.47,60.86h-2v3.83h2a2.24,2.24,0,0,0,1.59-.5,1.88,1.88,0,0,0,.52-1.42,1.84,1.84,0,0,0-.52-1.41A2.2,2.2,0,0,0,12.47,60.86Z"/><path class="cls-1" d="M13,48.85a3,3,0,0,0-.79-2.22A3,3,0,0,0,10,45.84H8.78v6H10a3,3,0,0,0,2.22-.78A3,3,0,0,0,13,48.85Z"/></g></g></svg>