<svg xmlns="http://www.w3.org/2000/svg" xmlns:xlink="http://www.w3.org/1999/xlink" viewBox="0,0,256,256" width="50px" height="50px"><g fill="#ffffff" fill-rule="nonzero" stroke="none" stroke-width="1" stroke-linecap="butt" stroke-linejoin="miter" stroke-miterlimit="10" stroke-dasharray="" stroke-dashoffset="0" font-family="none" font-weight="none" font-size="none" text-anchor="none" style="mix-blend-mode: normal"><g transform="scale(5.12,5.12)"><path d="M25,2c-12.69141,0 -23,10.30859 -23,23c0,12.69141 10.30859,23 23,23c12.69141,0 23,-10.30859 23,-23c0,-12.69141 -10.30859,-23 -23,-23zM25,4c11.60938,0 21,9.39063 21,21c0,11.60938 -9.39062,21 -21,21c-11.60937,0 -21,-9.39062 -21,-21c0,-11.60937 9.39063,-21 21,-21zM22,11c-1.09375,0 -2,0.90625 -2,2v7h-7c-1.09375,0 -2,0.90625 -2,2v6c0,1.09375 0.90625,2 2,2h7v7c0,1.09375 0.90625,2 2,2h6c1.09375,0 2,-0.90625 2,-2v-7h7c1.09375,0 2,-0.90625 2,-2v-6c0,-1.09375 -0.90625,-2 -2,-2h-7v-7c0,-1.09375 -0.90625,-2 -2,-2zM22,13h6v9h9v6h-9v9h-6v-9h-9v-6h9z"></path></g></g></svg>